<svg xmlns="http://www.w3.org/2000/svg" viewBox="0 0 64 64">
  <rect width="64" height="64" rx="14" fill="#20394e"/>
  <g fill="#f7f3ea">
    <path d="M7 27.5c7.9-4.3 16.1-3.7 24 1.8v25.2c-7.4-4.8-15.4-5.5-24-1.9V27.5Z"/>
    <path d="M57 27.5c-7.9-4.3-16.1-3.7-24 1.8v25.2c7.4-4.8 15.4-5.5 24-1.9V27.5Z"/>
    <path d="M42.4 6.5c-7.1 1.5-12.5 7.8-12.5 15.4 0 8.8 7.1 15.9 15.9 15.9 5.4 0 10.2-2.7 13.1-6.8-2.8 1.5-6.2 2.3-9.9 2.3-8.7 0-15.8-7.1-15.8-15.8 0-5.6 2.9-10.5 7.3-13.3.6-.4 1.1-1.2.4-1.4-.2-.2-.5-.3-.8-.2Z"/>
  </g>
</svg>
